<?xml version="1.0" encoding="UTF-8"?>
<!DOCTYPE svg PUBLIC "-//W3C//DTD SVG 1.1//EN" "http://www.w3.org/Graphics/SVG/1.1/DTD/svg11.dtd">
<svg xmlns="http://www.w3.org/2000/svg" version="1.1" width="167px" height="64px" style="shape-rendering:geometricPrecision; text-rendering:geometricPrecision; image-rendering:optimizeQuality; fill-rule:evenodd; clip-rule:evenodd" xmlns:xlink="http://www.w3.org/1999/xlink">
<g><path style="opacity:1" fill="#fdfdfd" d="M -0.5,-0.5 C 55.1667,-0.5 110.833,-0.5 166.5,-0.5C 166.5,20.8333 166.5,42.1667 166.5,63.5C 110.833,63.5 55.1667,63.5 -0.5,63.5C -0.5,42.1667 -0.5,20.8333 -0.5,-0.5 Z"/></g>
<g><path style="opacity:1" fill="#3d6e9e" d="M 84.5,35.5 C 82.8325,33.5214 82.1658,31.188 82.5,28.5C 86.6595,25.2311 89.6595,26.0645 91.5,31C 90.3357,34.3328 88.0024,35.8328 84.5,35.5 Z"/></g>
<g><path style="opacity:1" fill="#2f2b2c" d="M 114.5,26.5 C 116.857,26.3367 119.19,26.5034 121.5,27C 125.482,29.9515 125.482,32.9515 121.5,36C 123.167,38.3333 124.833,40.6667 126.5,43C 125.5,43.6667 124.5,43.6667 123.5,43C 122.167,41 120.833,39 119.5,37C 118.552,36.5172 117.552,36.3505 116.5,36.5C 116.808,38.924 116.474,41.2573 115.5,43.5C 114.505,37.8722 114.171,32.2055 114.5,26.5 Z"/></g>
<g><path style="opacity:1" fill="#383435" d="M 14.5,26.5 C 16.0174,26.5106 17.1841,27.1772 18,28.5C 19.3926,32.2857 21.0593,35.9523 23,39.5C 25.0099,34.8043 27.5099,30.471 30.5,26.5C 32.1254,32.0432 32.7921,37.7099 32.5,43.5C 31.5,43.5 30.5,43.5 29.5,43.5C 29.6653,39.8183 29.4986,36.1516 29,32.5C 27.254,36.3267 25.254,39.9934 23,43.5C 21.0045,40.2035 19.0045,36.8702 17,33.5C 16.5017,36.8168 16.335,40.1501 16.5,43.5C 15.5,43.5 14.5,43.5 13.5,43.5C 14.0318,37.8477 14.3651,32.181 14.5,26.5 Z"/></g>
<g><path style="opacity:1" fill="#252122" d="M 61.5,33.5 C 62.9516,34.3019 64.6183,34.8019 66.5,35C 64.6183,35.1981 62.9516,35.6981 61.5,36.5C 61.5,38.1667 61.5,39.8333 61.5,41.5C 63.924,41.1924 66.2573,41.5258 68.5,42.5C 65.5719,43.4841 62.5719,43.8174 59.5,43.5C 59.5,37.8333 59.5,32.1667 59.5,26.5C 62.5719,26.1826 65.5719,26.5159 68.5,27.5C 66.2573,28.4742 63.924,28.8076 61.5,28.5C 61.5,30.1667 61.5,31.8333 61.5,33.5 Z"/></g>
<g><path style="opacity:1" fill="#312d2e" d="M 95.5,26.5 C 99.8839,26.1744 104.217,26.5078 108.5,27.5C 106.955,28.4519 105.288,28.7852 103.5,28.5C 103.5,33.5 103.5,38.5 103.5,43.5C 102.5,43.5 101.5,43.5 100.5,43.5C 100.5,38.5 100.5,33.5 100.5,28.5C 98.2188,28.9227 96.5521,28.256 95.5,26.5 Z"/></g>
<g><path style="opacity:1" fill="#ebebeb" d="M 116.5,28.5 C 120.5,27.8333 122.167,29.5 121.5,33.5C 119.833,33.5 118.167,33.5 116.5,33.5C 116.5,31.8333 116.5,30.1667 116.5,28.5 Z"/></g>
<g><path style="opacity:1" fill="#abb8c5" d="M 80.5,28.5 C 81.1667,28.5 81.8333,28.5 82.5,28.5C 82.1658,31.188 82.8325,33.5214 84.5,35.5C 84.5,35.8333 84.5,36.1667 84.5,36.5C 81.5926,34.6855 80.2593,32.0188 80.5,28.5 Z"/></g>
<g><path style="opacity:1" fill="#322e2f" d="M 135.5,26.5 C 144.658,24.8346 148.825,28.5013 148,37.5C 146.843,41.8207 144.009,44.154 139.5,44.5C 130.99,41.8074 128.823,36.4741 133,28.5C 133.995,27.9341 134.828,27.2674 135.5,26.5 Z"/></g>
<g><path style="opacity:1" fill="#f8f8f8" d="M 136.5,28.5 C 143.825,27.9924 146.658,31.3258 145,38.5C 140.837,42.7475 137.171,42.4141 134,37.5C 132.927,33.9003 133.76,30.9003 136.5,28.5 Z"/></g>
<g><path style="opacity:1" fill="#727070" d="M 61.5,33.5 C 63.5,33.5 65.5,33.5 67.5,33.5C 67.5,34.5 67.5,35.5 67.5,36.5C 65.5,36.5 63.5,36.5 61.5,36.5C 62.9516,35.6981 64.6183,35.1981 66.5,35C 64.6183,34.8019 62.9516,34.3019 61.5,33.5 Z"/></g>
<g><path style="opacity:1" fill="#c8d5e2" d="M 81.5,41.5 C 79.5654,38.5419 77.2321,35.7085 74.5,33C 74.7284,32.6012 75.0618,32.4346 75.5,32.5C 76.5754,31.4376 77.5754,31.4376 78.5,32.5C 79.0891,35.2762 80.4224,37.6096 82.5,39.5C 82.1373,40.1835 81.8039,40.8501 81.5,41.5 Z"/></g>
<g><path style="opacity:1" fill="#353132" d="M 44.5,26.5 C 45.4959,26.4142 46.3292,26.7476 47,27.5C 48.8333,32.3333 50.6667,37.1667 52.5,42C 50.265,43.6453 49.265,42.8119 49.5,39.5C 46.8333,39.5 44.1667,39.5 41.5,39.5C 41.8833,42.462 40.8833,43.462 38.5,42.5C 40.7034,37.2205 42.7034,31.8872 44.5,26.5 Z"/></g>
<g><path style="opacity:1" fill="#cac9ca" d="M 45.5,32.5 C 46.9313,33.7804 47.5979,35.4471 47.5,37.5C 46.1667,37.5 44.8333,37.5 43.5,37.5C 43.3915,35.4862 44.0582,33.8195 45.5,32.5 Z"/></g>
<g><path style="opacity:1" fill="#2f2c2e" d="M 80.5,28.5 C 80.2593,32.0188 81.5926,34.6855 84.5,36.5C 85.8221,36.33 86.9887,36.6634 88,37.5C 91.115,44.874 89.615,51.0406 83.5,56C 82.6683,56.6877 82.0016,56.521 81.5,55.5C 84.1216,50.6953 84.1216,46.0287 81.5,41.5C 81.8039,40.8501 82.1373,40.1835 82.5,39.5C 80.4224,37.6096 79.0891,35.2762 78.5,32.5C 77.5754,31.4376 76.5754,31.4376 75.5,32.5C 72.0551,26.1727 73.2218,20.8393 79,16.5C 77.9509,20.6604 78.4509,24.6604 80.5,28.5 Z"/></g>
</svg>
